<svg xmlns="http://www.w3.org/2000/svg" xmlns:xlink="http://www.w3.org/1999/xlink" width="159" zoomAndPan="magnify" viewBox="0 0 119.25 48" height="64" preserveAspectRatio="xMidYMid meet" version="1.0"><path fill="#20953d" d="M 52.632812 7.046875 C 53.703125 8.207031 54.238281 9.859375 54.238281 12.011719 L 54.238281 21.332031 L 51.28125 21.332031 L 51.28125 12.125 C 51.28125 10.726562 50.941406 9.667969 50.269531 8.953125 C 49.59375 8.238281 48.65625 7.882812 47.457031 7.882812 C 46.152344 7.882812 45.117188 8.261719 44.351562 9.023438 C 43.585938 9.78125 43.203125 10.914062 43.203125 12.417969 L 43.203125 21.332031 L 40.246094 21.332031 L 40.246094 5.535156 L 43.113281 5.535156 L 43.113281 7.519531 C 44.21875 6.046875 45.902344 5.308594 48.164062 5.308594 C 50.074219 5.308594 51.566406 5.886719 52.632812 7.046875 Z M 52.632812 7.046875 " fill-opacity="1" fill-rule="nonzero"/><path fill="#20953d" d="M 69.070312 9.28125 L 69.070312 21.332031 L 66.363281 21.332031 L 66.363281 19.777344 C 65.894531 20.347656 65.3125 20.777344 64.625 21.0625 C 63.933594 21.347656 63.171875 21.492188 62.335938 21.492188 C 61.15625 21.492188 60.097656 21.234375 59.164062 20.722656 C 58.230469 20.210938 57.503906 19.488281 56.980469 18.558594 C 56.457031 17.625 56.195312 16.539062 56.195312 15.308594 C 56.195312 14.074219 56.457031 12.992188 56.980469 12.066406 C 57.503906 11.144531 58.230469 10.425781 59.164062 9.914062 C 60.097656 9.402344 61.15625 9.144531 62.335938 9.144531 C 63.125 9.144531 63.851562 9.28125 64.511719 9.550781 C 65.171875 9.824219 65.742188 10.222656 66.226562 10.75 L 66.226562 9.28125 Z M 65.25 18.039062 C 65.933594 17.347656 66.273438 16.433594 66.273438 15.308594 C 66.273438 14.179688 65.933594 13.269531 65.25 12.574219 C 64.566406 11.882812 63.703125 11.539062 62.65625 11.539062 C 61.609375 11.539062 60.75 11.882812 60.074219 12.574219 C 59.398438 13.269531 59.0625 14.179688 59.0625 15.308594 C 59.0625 16.433594 59.398438 17.347656 60.074219 18.039062 C 60.75 18.730469 61.609375 19.074219 62.65625 19.074219 C 63.703125 19.074219 64.566406 18.730469 65.25 18.039062 Z M 65.25 18.039062 " fill-opacity="1" fill-rule="nonzero"/><path fill="#20953d" d="M 78.71875 20.679688 C 78.382812 20.949219 77.980469 21.152344 77.5 21.289062 C 77.023438 21.421875 76.519531 21.492188 75.988281 21.492188 C 74.652344 21.492188 73.621094 21.144531 72.894531 20.453125 C 72.164062 19.761719 71.800781 18.753906 71.800781 17.429688 L 71.800781 6.617188 L 74.644531 6.617188 L 74.644531 9.371094 L 77.898438 9.371094 L 77.898438 11.628906 L 74.644531 11.628906 L 74.644531 17.359375 C 74.644531 17.949219 74.792969 18.394531 75.089844 18.703125 C 75.386719 19.011719 75.796875 19.167969 76.328125 19.167969 C 76.964844 19.167969 77.496094 19 77.921875 18.667969 Z M 78.71875 20.679688 " fill-opacity="1" fill-rule="nonzero"/><path fill="#20953d" d="M 91.914062 9.28125 L 91.914062 21.332031 L 89.207031 21.332031 L 89.207031 19.796875 C 88.75 20.339844 88.183594 20.757812 87.5 21.050781 C 86.816406 21.34375 86.082031 21.492188 85.292969 21.492188 C 83.671875 21.492188 82.394531 21.042969 81.460938 20.148438 C 80.527344 19.253906 80.0625 17.925781 80.0625 16.164062 L 80.0625 9.28125 L 82.90625 9.28125 L 82.90625 15.78125 C 82.90625 16.863281 83.152344 17.671875 83.644531 18.207031 C 84.136719 18.742188 84.839844 19.007812 85.75 19.007812 C 86.765625 19.007812 87.574219 18.695312 88.171875 18.070312 C 88.769531 17.449219 89.070312 16.546875 89.070312 15.375 L 89.070312 9.28125 Z M 91.914062 9.28125 " fill-opacity="1" fill-rule="nonzero"/><path fill="#20953d" d="M 101.765625 9.144531 L 101.765625 11.832031 C 101.523438 11.785156 101.300781 11.761719 101.105469 11.761719 C 100 11.761719 99.132812 12.082031 98.511719 12.722656 C 97.890625 13.363281 97.578125 14.285156 97.578125 15.488281 L 97.578125 21.332031 L 94.734375 21.332031 L 94.734375 9.28125 L 97.441406 9.28125 L 97.441406 11.042969 C 98.261719 9.777344 99.703125 9.144531 101.765625 9.144531 Z M 101.765625 9.144531 " fill-opacity="1" fill-rule="nonzero"/><path fill="#20953d" d="M 112.230469 17.789062 L 113.734375 19.527344 C 113.203125 20.175781 112.519531 20.664062 111.683594 20.996094 C 110.851562 21.324219 109.910156 21.492188 108.863281 21.492188 C 107.527344 21.492188 106.351562 21.226562 105.335938 20.699219 C 104.320312 20.175781 103.535156 19.441406 102.984375 18.5 C 102.429688 17.558594 102.152344 16.496094 102.152344 15.308594 C 102.152344 14.132812 102.421875 13.078125 102.960938 12.136719 C 103.5 11.195312 104.242188 10.460938 105.191406 9.9375 C 106.136719 9.410156 107.210938 9.144531 108.410156 9.144531 C 109.546875 9.144531 110.582031 9.390625 111.515625 9.878906 C 112.449219 10.367188 113.1875 11.066406 113.734375 11.976562 C 114.277344 12.890625 114.550781 13.953125 114.550781 15.171875 L 105.246094 16.976562 C 105.535156 17.667969 105.996094 18.195312 106.632812 18.558594 C 107.269531 18.917969 108.039062 19.097656 108.933594 19.097656 C 110.25 19.097656 111.351562 18.664062 112.230469 17.789062 Z M 105.871094 12.417969 C 105.226562 13.09375 104.90625 14.003906 104.90625 15.148438 L 104.90625 15.171875 L 111.777344 13.863281 C 111.578125 13.125 111.179688 12.53125 110.582031 12.078125 C 109.980469 11.628906 109.257812 11.402344 108.410156 11.402344 C 107.363281 11.402344 106.515625 11.742188 105.871094 12.417969 Z M 105.871094 12.417969 " fill-opacity="1" fill-rule="nonzero"/><path fill="#20953d" d="M 50.289062 23.652344 L 50.289062 36.6875 L 48.164062 36.6875 L 48.164062 35.476562 C 47.796875 35.921875 47.347656 36.253906 46.808594 36.476562 C 46.269531 36.699219 45.679688 36.8125 45.027344 36.8125 C 44.121094 36.8125 43.300781 36.613281 42.574219 36.214844 C 41.847656 35.816406 41.28125 35.25 40.867188 34.519531 C 40.453125 33.785156 40.246094 32.945312 40.246094 31.996094 C 40.246094 31.046875 40.453125 30.210938 40.867188 29.484375 C 41.28125 28.757812 41.847656 28.195312 42.574219 27.796875 C 43.300781 27.398438 44.121094 27.199219 45.027344 27.199219 C 45.65625 27.199219 46.226562 27.304688 46.746094 27.515625 C 47.265625 27.726562 47.710938 28.042969 48.074219 28.464844 L 48.074219 23.652344 Z M 46.730469 34.570312 C 47.152344 34.332031 47.492188 33.988281 47.738281 33.542969 C 47.988281 33.097656 48.109375 32.582031 48.109375 31.996094 C 48.109375 31.410156 47.988281 30.894531 47.738281 30.449219 C 47.492188 30.003906 47.152344 29.664062 46.730469 29.421875 C 46.304688 29.183594 45.824219 29.0625 45.292969 29.0625 C 44.761719 29.0625 44.285156 29.183594 43.859375 29.421875 C 43.433594 29.664062 43.097656 30.003906 42.851562 30.449219 C 42.601562 30.894531 42.476562 31.410156 42.476562 31.996094 C 42.476562 32.582031 42.601562 33.097656 42.851562 33.542969 C 43.097656 33.988281 43.433594 34.332031 43.859375 34.570312 C 44.285156 34.8125 44.761719 34.929688 45.292969 34.929688 C 45.824219 34.929688 46.304688 34.8125 46.730469 34.570312 Z M 46.730469 34.570312 " fill-opacity="1" fill-rule="nonzero"/><path fill="#20953d" d="M 59.554688 33.929688 L 60.722656 35.28125 C 60.308594 35.785156 59.777344 36.167969 59.128906 36.425781 C 58.476562 36.683594 57.746094 36.8125 56.933594 36.8125 C 55.890625 36.8125 54.976562 36.605469 54.1875 36.195312 C 53.394531 35.785156 52.785156 35.214844 52.351562 34.484375 C 51.921875 33.75 51.707031 32.921875 51.707031 31.996094 C 51.707031 31.082031 51.914062 30.261719 52.335938 29.527344 C 52.753906 28.796875 53.332031 28.226562 54.070312 27.816406 C 54.808594 27.40625 55.644531 27.199219 56.578125 27.199219 C 57.464844 27.199219 58.269531 27.390625 58.996094 27.773438 C 59.722656 28.152344 60.296875 28.695312 60.722656 29.40625 C 61.148438 30.113281 61.359375 30.941406 61.359375 31.890625 L 54.117188 33.296875 C 54.339844 33.835938 54.699219 34.246094 55.195312 34.527344 C 55.691406 34.808594 56.289062 34.949219 56.984375 34.949219 C 58.011719 34.949219 58.867188 34.609375 59.554688 33.929688 Z M 54.601562 29.746094 C 54.101562 30.273438 53.851562 30.984375 53.851562 31.875 L 53.851562 31.890625 L 59.199219 30.871094 C 59.046875 30.296875 58.734375 29.835938 58.269531 29.484375 C 57.800781 29.132812 57.238281 28.957031 56.578125 28.957031 C 55.761719 28.957031 55.105469 29.222656 54.601562 29.746094 Z M 54.601562 29.746094 " fill-opacity="1" fill-rule="nonzero"/><path fill="#20953d" d="M 69.515625 36.046875 C 68.507812 35.503906 67.714844 34.75 67.144531 33.789062 C 66.570312 32.828125 66.285156 31.746094 66.285156 30.539062 C 66.285156 29.332031 66.574219 28.25 67.152344 27.289062 C 67.730469 26.328125 68.523438 25.574219 69.535156 25.03125 C 70.542969 24.484375 71.675781 24.214844 72.925781 24.214844 C 73.941406 24.214844 74.867188 24.390625 75.707031 24.742188 C 76.546875 25.089844 77.253906 25.601562 77.832031 26.269531 L 76.34375 27.65625 C 75.445312 26.695312 74.34375 26.214844 73.03125 26.214844 C 72.183594 26.214844 71.421875 26.402344 70.746094 26.769531 C 70.074219 27.140625 69.546875 27.652344 69.171875 28.308594 C 68.792969 28.964844 68.605469 29.707031 68.605469 30.539062 C 68.605469 31.371094 68.792969 32.113281 69.171875 32.769531 C 69.546875 33.425781 70.074219 33.9375 70.746094 34.308594 C 71.421875 34.675781 72.183594 34.863281 73.03125 34.863281 C 74.34375 34.863281 75.445312 34.375 76.34375 33.402344 L 77.832031 34.808594 C 77.253906 35.476562 76.542969 35.984375 75.699219 36.335938 C 74.855469 36.6875 73.921875 36.863281 72.910156 36.863281 C 71.65625 36.863281 70.527344 36.59375 69.515625 36.046875 Z M 69.515625 36.046875 " fill-opacity="1" fill-rule="nonzero"/><path fill="#20953d" d="M 87.363281 28.238281 C 88.082031 28.929688 88.441406 29.953125 88.441406 31.3125 L 88.441406 36.6875 L 86.226562 36.6875 L 86.226562 31.59375 C 86.226562 30.773438 86.035156 30.15625 85.644531 29.738281 C 85.253906 29.324219 84.699219 29.117188 83.980469 29.117188 C 83.164062 29.117188 82.519531 29.359375 82.046875 29.84375 C 81.574219 30.332031 81.339844 31.03125 81.339844 31.945312 L 81.339844 36.6875 L 79.125 36.6875 L 79.125 23.652344 L 81.339844 23.652344 L 81.339844 28.394531 C 81.707031 28.007812 82.15625 27.714844 82.695312 27.507812 C 83.230469 27.304688 83.832031 27.199219 84.492188 27.199219 C 85.683594 27.199219 86.640625 27.546875 87.363281 28.238281 Z M 87.363281 28.238281 " fill-opacity="1" fill-rule="nonzero"/><path fill="#20953d" d="M 90.65625 25.382812 C 90.382812 25.128906 90.25 24.816406 90.25 24.441406 C 90.25 24.066406 90.386719 23.753906 90.65625 23.5 C 90.929688 23.25 91.265625 23.125 91.667969 23.125 C 92.066406 23.125 92.402344 23.246094 92.675781 23.484375 C 92.945312 23.722656 93.082031 24.027344 93.082031 24.390625 C 93.082031 24.777344 92.949219 25.101562 92.683594 25.363281 C 92.417969 25.628906 92.078125 25.757812 91.667969 25.757812 C 91.265625 25.757812 90.929688 25.632812 90.65625 25.382812 Z M 90.550781 27.304688 L 92.765625 27.304688 L 92.765625 36.6875 L 90.550781 36.6875 Z M 90.550781 27.304688 " fill-opacity="1" fill-rule="nonzero"/><path fill="#20953d" d="M 102.027344 33.929688 L 103.195312 35.28125 C 102.785156 35.785156 102.253906 36.167969 101.601562 36.425781 C 100.953125 36.683594 100.222656 36.8125 99.40625 36.8125 C 98.367188 36.8125 97.453125 36.605469 96.660156 36.195312 C 95.871094 35.785156 95.257812 35.214844 94.828125 34.484375 C 94.398438 33.75 94.179688 32.921875 94.179688 31.996094 C 94.179688 31.082031 94.390625 30.261719 94.808594 29.527344 C 95.230469 28.796875 95.808594 28.226562 96.546875 27.816406 C 97.285156 27.40625 98.121094 27.199219 99.050781 27.199219 C 99.9375 27.199219 100.742188 27.390625 101.46875 27.773438 C 102.195312 28.152344 102.773438 28.695312 103.195312 29.40625 C 103.621094 30.113281 103.835938 30.941406 103.835938 31.890625 L 96.589844 33.296875 C 96.8125 33.835938 97.175781 34.246094 97.671875 34.527344 C 98.167969 34.808594 98.761719 34.949219 99.460938 34.949219 C 100.488281 34.949219 101.34375 34.609375 102.027344 33.929688 Z M 97.078125 29.746094 C 96.574219 30.273438 96.324219 30.984375 96.324219 31.875 L 96.324219 31.890625 L 101.671875 30.871094 C 101.519531 30.296875 101.210938 29.835938 100.742188 29.484375 C 100.277344 29.132812 99.714844 28.957031 99.050781 28.957031 C 98.238281 28.957031 97.578125 29.222656 97.078125 29.746094 Z M 97.078125 29.746094 " fill-opacity="1" fill-rule="nonzero"/><path fill="#20953d" d="M 113.488281 28.238281 C 114.207031 28.929688 114.570312 29.953125 114.570312 31.3125 L 114.570312 36.6875 L 112.355469 36.6875 L 112.355469 31.59375 C 112.355469 30.773438 112.160156 30.15625 111.769531 29.738281 C 111.378906 29.324219 110.824219 29.117188 110.105469 29.117188 C 109.289062 29.117188 108.644531 29.359375 108.175781 29.84375 C 107.703125 30.332031 107.464844 31.03125 107.464844 31.945312 L 107.464844 36.6875 L 105.25 36.6875 L 105.25 27.304688 L 107.359375 27.304688 L 107.359375 28.519531 C 107.726562 28.085938 108.1875 27.757812 108.742188 27.535156 C 109.296875 27.3125 109.921875 27.199219 110.617188 27.199219 C 111.8125 27.199219 112.769531 27.546875 113.488281 28.238281 Z M 113.488281 28.238281 " fill-opacity="1" fill-rule="nonzero"/><path fill="#73bf2d" d="M 10.667969 28.597656 C 9.851562 27.628906 9.128906 26.617188 8.496094 25.570312 C 6.824219 26.390625 5.285156 27.472656 3.945312 28.777344 C 5.472656 34.550781 9.96875 39.382812 16.1875 41.082031 C 22.40625 42.777344 28.757812 40.902344 33.046875 36.714844 C 24.941406 38.109375 16.324219 35.308594 10.667969 28.597656 Z M 10.667969 28.597656 " fill-opacity="1" fill-rule="nonzero"/><path fill="#20953d" d="M 28.949219 13.429688 C 23.289062 6.71875 14.675781 3.914062 6.570312 5.3125 C 4.15625 11.875 4.730469 19.347656 8.496094 25.570312 C 9.128906 26.617188 9.851562 27.628906 10.667969 28.597656 C 16.324219 35.308594 24.941406 38.109375 33.046875 36.714844 C 35.863281 29.046875 34.605469 20.140625 28.949219 13.429688 Z M 22.808594 14.539062 C 23.140625 13.933594 24.183594 13.390625 24.925781 13.921875 C 25.847656 14.582031 26.738281 15.824219 26.738281 17.25 C 26.734375 18.484375 26.027344 19.042969 25.058594 19.246094 C 24.074219 19.449219 23.289062 18.769531 22.875 17.921875 C 22.597656 17.359375 22.460938 16.5625 22.460938 16.199219 C 22.460938 15.757812 22.535156 15.035156 22.808594 14.539062 Z M 17.121094 12.027344 C 18.101562 11.574219 19.605469 12.269531 20.582031 13.628906 C 20.632812 13.699219 20.683594 13.765625 20.730469 13.835938 C 21.859375 15.574219 21.363281 17.265625 19.648438 17.515625 C 18.148438 17.734375 16.925781 16.828125 16.378906 15.085938 C 15.925781 13.648438 16.214844 12.445312 17.121094 12.027344 Z M 11.675781 15.921875 C 12.515625 15.0625 14.347656 15.417969 15.667969 16.699219 C 16.824219 17.816406 16.945312 19.429688 15.957031 20.429688 C 15.042969 21.351562 13.746094 21.148438 12.511719 19.886719 C 11.207031 18.550781 10.835938 16.78125 11.675781 15.921875 Z M 16.578125 26.03125 C 15.96875 26.824219 14.925781 26.820312 14.054688 26.453125 C 13.476562 26.207031 12.84375 25.691406 12.605469 25.417969 C 12.382812 25.164062 12.082031 24.753906 11.898438 24.324219 C 11.84375 24.195312 11.800781 24.0625 11.769531 23.9375 C 11.625 23.265625 12.054688 22.160156 12.96875 22.097656 C 14.335938 22 15.59375 22.355469 16.53125 23.433594 C 16.640625 23.558594 16.730469 23.679688 16.804688 23.800781 C 17.292969 24.601562 17.097656 25.355469 16.578125 26.03125 Z M 22.648438 29.261719 C 21.683594 30.042969 20.621094 30.207031 19.53125 29.613281 C 18.480469 29.042969 17.976562 28.054688 18.238281 26.917969 C 18.46875 25.921875 18.582031 24.945312 18.59375 23.957031 C 18.597656 23.25 18.546875 22.539062 18.445312 21.816406 C 18.207031 20.128906 19.707031 19.046875 21.28125 19.753906 C 22.820312 20.449219 24.347656 20.851562 26.042969 20.875 C 27.257812 20.894531 28.125 21.636719 28.457031 22.839844 C 28.792969 24.054688 28.40625 25.113281 27.335938 25.730469 C 26.761719 26.0625 26.257812 26.363281 25.800781 26.660156 C 24.609375 27.425781 23.730469 28.148438 22.648438 29.261719 Z M 22.648438 29.261719 " fill-opacity="1" fill-rule="nonzero"/><path fill="#808080" d="M 20.804688 24.410156 C 16.527344 23.246094 12.1875 23.769531 8.5 25.570312 C 9.132812 26.617188 9.851562 27.628906 10.667969 28.597656 C 16.324219 35.308594 24.941406 38.109375 33.046875 36.714844 C 31.519531 30.941406 27.023438 26.109375 20.804688 24.410156 Z M 20.804688 24.410156 " fill-opacity="0.098" fill-rule="nonzero"/></svg>