<?xml version="1.0" encoding="UTF-8" standalone="no"?>
<!-- Created with Inkscape (http://www.inkscape.org/) -->

<svg
   version="1.1"
   id="svg1"
   width="409.57269"
   height="231.463"
   viewBox="0 0 409.57269 231.463"
   sodipodi:docname="logo (1).png"
   xml:space="preserve"
   inkscape:export-filename="..\Pictures\Logo 3.svg"
   inkscape:export-xdpi="96"
   inkscape:export-ydpi="96"
   xmlns:inkscape="http://www.inkscape.org/namespaces/inkscape"
   xmlns:sodipodi="http://sodipodi.sourceforge.net/DTD/sodipodi-0.dtd"
   xmlns:xlink="http://www.w3.org/1999/xlink"
   xmlns="http://www.w3.org/2000/svg"
   xmlns:svg="http://www.w3.org/2000/svg"><defs
     id="defs1" /><sodipodi:namedview
     id="namedview1"
     pagecolor="#ffffff"
     bordercolor="#000000"
     borderopacity="0.25"
     inkscape:showpageshadow="2"
     inkscape:pageopacity="0.0"
     inkscape:pagecheckerboard="0"
     inkscape:deskcolor="#d1d1d1" /><g
     inkscape:groupmode="layer"
     id="layer4"
     inkscape:label="Pates"
     transform="translate(-45.5,-95.820152)"><g
       id="layer1-9"
       inkscape:label="Pate 1"
       style="display:inline"
       transform="matrix(0.81050319,0,0,0.88793839,145.73101,8.9988071)"><path
         style="fill:#8e6259;fill-opacity:1"
         d="m 311.97254,356.79602 c -2.20432,-0.81762 -2.16126,-18.88926 0.10648,-44.68525 0.78502,-8.92977 0.94306,-19.80131 0.45951,-31.61077 -0.40536,-9.9 -1.03241,-25.2 -1.39343,-34 -0.52805,-12.87105 -1.02399,-16.68446 -2.53602,-19.5 -6.19158,-11.52927 -6.9654,-13.63068 -7.6938,-20.89343 -0.41958,-4.18361 -2.14115,-11.43157 -3.8257,-16.10657 -5.10482,-14.16698 -2.07318,-26.25679 6.30343,-23 5.87222,2.28309 5.04187,1.61132 4.60699,-6.15871 -0.38871,-6.94522 6.73944,-10.43462 14.21,-6.9656 7.68147,3.56696 2.66943,3.55479 8.81744,-0.5 6.16778,-4.06782 10.68819,1.70295 15.86878,9.83338 4.43089,6.95385 9.86823,2.90381 13.46715,2.53238 11.40422,-1.17697 10.75076,16.0733 3.761,33.57365 -0.6184,1.5483 -1.12437,6.14415 -1.12437,10.21298 0,5.17883 -0.63126,8.98376 -2.1045,12.6849 -2.95005,7.41124 -1.81734,21.09274 4.9681,60.00751 1.69943,9.74627 4.02114,22.12127 5.15935,27.5 1.13822,5.37873 2.47835,11.87117 2.97807,14.42765 0.49971,2.55647 2.00682,8.18147 3.34912,12.5 3.58751,11.54199 5.00285,18.39887 4.00391,19.39781 -1.04931,1.04931 -66.66237,1.75865 -69.38151,0.75007 z"
         id="path10-2"
         sodipodi:nodetypes="ssssssssssssssssssssss" /><path
         style="fill:#e5b199;fill-opacity:1;stroke:none"
         d="m 335.0556,155.90118 c -9.47925,0.0486 -8.06118,20.28992 0.0274,20.37757 9.15927,0.0992 10.37573,-20.43091 -0.0274,-20.37757 m -20.71774,0.88263 c -8.33383,4.18766 -0.62744,22.67099 6.89725,19.17954 7.49298,-3.47675 2.76074,-24.03256 -6.89725,-19.17954 m 43.46817,36.43923 c 10.5394,-1.89782 6.42358,-32.33674 -2.49413,-18.92248 -2.36624,2.44002 -6.60478,4.55051 -7.84085,7.11806 -3.33346,6.92426 0.46199,13.58224 10.33498,11.80442 z m -48.07022,-2.98138 c 6.37674,-3.60062 3.51432,-10.89639 -3.33178,-13.58193 -2.66783,-1.04651 -2.65957,-6.88935 -5.14645,-5.64041 -9.51962,4.80965 -1.07369,24.61582 8.47823,19.22234 z m 17.35797,-3.08892 c -11.84302,3.64066 -26.7652,23.19202 -15.49393,33.94952 7.40076,7.06342 14.37553,2.21707 23.24592,2.25275 4.38947,0.0176 8.81372,2.97069 13.10937,1.46695 14.01667,-4.90668 6.49336,-14.48198 -0.31654,-22.44418 -2.15484,-2.51946 -2.72708,-4.9899 -4.36766,-7.5018 -3.25884,-4.98963 -9.41083,-9.80326 -16.17716,-7.72324"
         id="path9-4"
         sodipodi:nodetypes="csccscscsssscscsssssc" /></g><g
       id="layer1"
       inkscape:label="Pate 2"
       style="display:inline"
       transform="translate(0,-30)"><path
         style="fill:#e6e6e6;fill-opacity:1"
         d="m 311.97254,356.79602 c -2.20432,-0.81762 -2.16126,-18.88926 0.10648,-44.68525 0.78502,-8.92977 0.94306,-19.80131 0.45951,-31.61077 -0.40536,-9.9 -1.03241,-25.2 -1.39343,-34 -0.52805,-12.87105 -1.02399,-16.68446 -2.53602,-19.5 -6.19158,-11.52927 -6.9654,-13.63068 -7.6938,-20.89343 -0.41958,-4.18361 -2.14115,-11.43157 -3.8257,-16.10657 -5.10482,-14.16698 -2.07318,-26.25679 6.30343,-23 5.87222,2.28309 5.04187,1.61132 4.60699,-6.15871 -0.38871,-6.94522 6.73944,-10.43462 14.21,-6.9656 7.68147,3.56696 2.66943,3.55479 8.81744,-0.5 6.16778,-4.06782 10.68819,1.70295 15.86878,9.83338 4.43089,6.95385 9.86823,2.90381 13.46715,2.53238 11.40422,-1.17697 10.75076,16.0733 3.761,33.57365 -0.6184,1.5483 -1.12437,6.14415 -1.12437,10.21298 0,5.17883 -0.63126,8.98376 -2.1045,12.6849 -2.95005,7.41124 -1.81734,21.09274 4.9681,60.00751 1.69943,9.74627 4.02114,22.12127 5.15935,27.5 1.13822,5.37873 2.47835,11.87117 2.97807,14.42765 0.49971,2.55647 2.00682,8.18147 3.34912,12.5 3.58751,11.54199 5.00285,18.39887 4.00391,19.39781 -1.04931,1.04931 -66.66237,1.75865 -69.38151,0.75007 z"
         id="path10"
         sodipodi:nodetypes="ssssssssssssssssssssss" /><path
         style="fill:#343434;fill-opacity:1;stroke:none"
         d="m 335.0556,155.90118 c -9.47925,0.0486 -8.06118,20.28992 0.0274,20.37757 9.15927,0.0992 10.37573,-20.43091 -0.0274,-20.37757 m -20.71774,0.88263 c -8.33383,4.18766 -0.62744,22.67099 6.89725,19.17954 7.49298,-3.47675 2.76074,-24.03256 -6.89725,-19.17954 m 43.46817,36.43923 c 10.58956,-1.59432 11.73179,-32.20194 0.16242,-20.909 -1.73944,1.57515 -7.19071,4.30602 -8.49626,6.01055 -5.10175,6.66089 -2.73474,16.56489 8.33384,14.89845 z m -48.07022,-2.98138 c 5.43963,-2.66006 4.79342,-14.55537 -3.78546,-15.25094 -3.55008,-0.28784 -4.12697,-5.86886 -5.54288,-5.1471 -9.18195,5.42676 -0.5343,25.22101 9.32834,20.39804 z m 17.35797,-3.08892 c -11.84302,3.64066 -26.7652,23.19202 -15.49393,33.94952 7.40076,7.06342 14.52976,4.04715 23.40015,4.08283 4.38947,0.0176 8.65948,1.14059 12.95514,-0.36313 18.45193,-6.45929 2.78271,-22.71692 -4.6842,-29.94598 -4.36573,-4.22666 -9.41083,-9.80326 -16.17716,-7.72324 M 313,272 c 7.5495,-1.6058 13.05823,-6.6572 11.44376,-14.98877 -0.69477,-3.58545 -5.4459,-11.84076 -10.2728,-9.03017 -3.60614,2.09977 -1.69556,9.76564 -1.44263,13.01613 0.28504,3.66284 0.26819,7.33158 0.27167,11.00281 m 54,21 c -0.79147,-3.99738 -1.63455,-7.98712 -2.33914,-12.00101 -0.4046,-2.30496 -0.68021,-4.64441 -1.17777,-6.93176 -1.31323,-6.03702 -7.70694,-9.11435 -11.45257,-2.65662 C 346.20474,281.45462 356.6315,294.13031 367,293 m -32.5874,0.83908 c -4.55796,2.56046 -2.49417,12.65152 3.12655,10.12442 5.07758,-2.2829 2.4104,-13.23486 -3.12655,-10.12442 M 313,317 c -0.58432,3.67365 -0.90988,7.28229 -0.99127,11.00281 -0.0657,3.00064 -0.27454,5.9837 -0.39334,8.98041 -0.23581,5.94763 4.15295,11.08221 9.44204,5.37976 C 329.17203,333.61423 323.86206,319.36581 313,317 m 47.0668,3.28491 c -13.14175,2.87921 -5.11389,24.77896 6.84461,22.72125 13.51761,-2.32598 5.61175,-25.45031 -6.84461,-22.72125 z"
         id="path9"
         sodipodi:nodetypes="csccscscsssscscssssccsssccsssccsccssscsss"
         inkscape:label="path9" /></g><g
       id="layer3"
       inkscape:label="pate 3"
       transform="translate(0,-30)"><path
         style="display:inline;fill:#f6a554;fill-opacity:1"
         d="m 203.88158,356.25 c -0.18752,-1.18762 -0.21998,-1.00294 2.94422,-16.75 6.13226,-30.51793 8.64378,-52.16227 11.79691,-101.66611 2.26008,-18.70279 1.42407,-26.24729 -0.41377,-31.06733 0,0 -1.43933,-3.33645 -3.79165,-7.75998 -2.35231,-4.42352 -1.62132,-8.38602 -0.85583,-11.6675 1.76961,-6.00629 0.24877,-9.58933 -2.45735,-14.69063 -7.0772,-13.3412 -1.90338,-29.79682 9.53388,-30.1317 5.93435,0.45472 4.24716,-2.0741 5.03886,-5.50402 2.8235,-11.03824 10.76166,-14.39708 18.65286,-7.89249 1.66052,1.45779 3.05433,4.76875 5.97784,1.12497 9.12453,-8.30397 19.69245,-2.99562 19.69245,9.89166 0,2.76075 0.2439,3.01725 2.25,2.36624 16.41595,-5.32717 24.64012,13.82349 13.87228,32.30275 -3.394,5.82462 -3.97406,7.74125 -4.46562,14.75542 -0.45161,6.44398 -1.19927,9.25275 -3.72666,14 -5.87313,9.36343 -2.78523,21.31669 -2.52518,31.93872 0.95687,39.08473 4.48504,73.50344 11.62605,113.41678 0.53302,2.97923 0.96913,6.01673 0.96913,6.75 0,1.47995 -83.885,2.06155 -84.11842,0.58322 z"
         id="path13"
         sodipodi:nodetypes="sssczzsccccsssssssss" /><path
         style="fill:#ffd599;fill-opacity:1;stroke:none"
         d="m 254.37726,154.33104 c 11.27859,-0.2951 15.00227,-25.50112 3.4599,-25.29861 -9.46029,-0.0454 -11.17818,25.50056 -3.4599,25.29861 z m -15.63554,-0.37953 c 9.32151,-4.23114 6.14142,-27.57572 -6.35822,-22.85963 -7.37429,3.58584 -0.72998,26.07704 6.35822,22.85963 z m 37.01767,18.85277 c 14.4938,-0.28708 12.04094,-26.3295 3.23653,-25.96836 -2.03566,0.0835 -1.51987,4.69881 -6.60968,4.33879 -14.02097,-0.32815 -6.79728,21.83102 3.37315,21.62957 z m -48.49267,-4.2489 c 4.5611,-3.49403 4.1015,-11.84617 -0.85186,-14.30602 -3.59892,-1.78723 -2.63093,-5.89859 -5.33026,-5.81717 -18.13074,6.54808 -6.92262,30.16205 6.18212,20.12319 z m 21.20671,-5.9061 c -3.47782,0.25129 -5.17475,-0.96852 -14.27139,9.17339 -0.83151,0.92706 -2.7171,4.00718 -4.61697,4.8178 -17.20751,7.34197 -15.21773,24.56905 1.25034,30.60471 4.22975,1.55023 10.32872,-2.53799 16.28901,-2.50732 5.99366,0.0308 11.6624,3.36394 19.08407,1.22262 17.54647,-5.06256 11.22059,-23.46732 0.7339,-27.77891 -3.00188,-1.23422 -6.58535,-5.90225 -8.31948,-8.43295 -3.19737,-4.66606 -8.57595,-6.94937 -10.13275,-7.10372"
         id="path14"
         sodipodi:nodetypes="scsscssscssscscsssssssc" /></g><g
       id="layer2"
       inkscape:label="pate 4"
       style="display:inline"
       transform="translate(0,-30)"><path
         style="fill:#faca9a;fill-opacity:1"
         d="m 144.75,356.25054 c -21.50164,-0.1954 -30.75,-0.60982 -30.75,-1.37793 0,-0.60416 1.60322,-6.78516 3.56271,-13.73554 5.57783,-19.7848 6.22688,-22.27734 7.32688,-28.13707 0.56786,-3.025 2.59153,-13.15 4.49705,-22.5 6.89721,-33.84324 8.87984,-53.6169 6.10459,-60.8838 -1.45208,-3.80221 -1.65293,-6.27543 -1.10215,-13.5715 0.57287,-7.58871 0.36069,-9.85059 -1.41987,-15.1361 -4.00899,-11.9005 0.62988,-23.3745 9.95589,-24.62538 3.49463,-0.46873 4.14866,-0.97667 5.14508,-3.99587 2.93898,-8.9052 13.29262,-14.3986 15.61732,-6.09985 0.84791,3.02688 3.17911,0.83355 5.42126,-1.13871 2.4664,-2.87657 17.21634,-4.8656 16.01719,5.17379 -1.19915,10.03938 1.61053,4.11651 9.94906,4.69858 8.33853,0.58207 11.2892,12.2715 0.43603,28.62682 -2.1999,3.31519 -3.74695,7.26275 -4.50685,11.5 -0.63639,3.54861 -2.50321,8.92702 -4.14849,11.95202 -6.60942,12.15203 -10.65369,82.60315 -6.82747,118.93425 1.03258,9.80463 0.60074,11.34694 -3.02823,10.81543 -0.825,-0.12083 -15.3375,-0.34544 -32.25,-0.49914 z"
         id="path12"
         sodipodi:nodetypes="sssssssssssczzssssss" /><path
         style="display:inline;fill:#695f5d;fill-opacity:1;stroke:none"
         d="m 157.05745,166.70392 c -9.38853,-1.59916 -7.14093,20.70653 0.38801,19.73126 6.7774,-0.87792 8.75347,-20.49554 -0.38801,-19.73126 m 17.00056,-0.62969 c -7.71256,-1.76767 -13.6556,25.45814 -1.06923,17.75279 7.60422,-4.65529 9.92767,-20.31185 -0.17039,-17.7756 m 14.13277,16.99891 c -10.40454,1.30251 -10.6346,19.70145 2.99436,17.98082 9.69323,-1.22375 10.94704,-26.42728 1.61571,-19.75381 -2.78545,2.11724 -2.28929,1.48246 -4.61007,1.77299 z M 146,182 c -2.22548,-1.85653 -5.08952,-0.19293 -7.06192,2.05638 -1.15372,1.31569 -2.43548,2.85267 -3.11418,4.46403 -7.93604,16.00428 18.04822,13.39492 15.13231,0.95357 C 150.3834,187.02996 147.01175,184.28912 146,182 m 14.05528,14.2944 c -9.27492,3.57514 -29.06751,19.41553 -19.98243,30.46445 6.50532,7.91151 27.20478,7.32652 35.88229,3.92542 15.94153,-6.2482 8.08404,-21.50849 -1.14064,-27.84693 -4.78848,-3.29025 -8.43717,-8.97986 -14.75922,-6.54294"
         id="path11"
         sodipodi:nodetypes="csccscsscscscsccsssc" /></g><g
       id="layer2-5"
       inkscape:label="pate 5"
       style="display:inline"
       transform="matrix(0.83059507,0,0,0.80230529,-49.187837,37.948839)"><path
         style="fill:#343434;fill-opacity:1"
         d="m 144.75,356.25054 c -21.50164,-0.1954 -30.75,-0.60982 -30.75,-1.37793 0,-0.60416 1.60322,-6.78516 3.56271,-13.73554 5.57783,-19.7848 6.22688,-22.27734 7.32688,-28.13707 0.56786,-3.025 2.59153,-13.15 4.49705,-22.5 6.89721,-33.84324 8.87984,-53.6169 6.10459,-60.8838 -1.45208,-3.80221 -1.65293,-6.27543 -1.10215,-13.5715 0.57287,-7.58871 0.36069,-9.85059 -1.41987,-15.1361 -4.00899,-11.9005 0.62988,-23.3745 9.95589,-24.62538 3.49463,-0.46873 4.14866,-0.97667 5.14508,-3.99587 2.93898,-8.9052 13.29262,-14.3986 15.61732,-6.09985 0.84791,3.02688 3.17911,0.83355 5.42126,-1.13871 2.4664,-2.87657 17.21634,-4.8656 16.01719,5.17379 -1.19915,10.03938 1.61053,4.11651 9.94906,4.69858 8.33853,0.58207 11.2892,12.2715 0.43603,28.62682 -2.1999,3.31519 -3.74695,7.26275 -4.50685,11.5 -0.63639,3.54861 -2.50321,8.92702 -4.14849,11.95202 -6.60942,12.15203 -10.65369,82.60315 -6.82747,118.93425 1.03258,9.80463 0.60074,11.34694 -3.02823,10.81543 -0.825,-0.12083 -15.3375,-0.34544 -32.25,-0.49914 z"
         id="path12-4"
         sodipodi:nodetypes="sssssssssssczzssssss" /><path
         style="display:inline;fill:#000000;fill-opacity:1;stroke:none"
         d="m 157.05745,166.70392 c -9.38853,-1.59916 -7.14093,20.70653 0.38801,19.73126 6.7774,-0.87792 8.75347,-20.49554 -0.38801,-19.73126 m 17.00056,-0.62969 c -7.71256,-1.76767 -13.6556,25.45814 -1.06923,17.75279 7.60422,-4.65529 9.92767,-20.31185 -0.17039,-17.7756 m 19.66675,14.17701 c -2.77186,2.10365 -4.0882,4.40637 -6.40898,4.6969 -10.40454,1.30251 -9.80091,17.45966 3.86936,16.10582 9.1951,-0.91064 11.8225,-21.75226 2.5668,-20.8299 M 146,182 c -2.22548,-1.85653 -5.08952,-0.19293 -7.06192,2.05638 -1.15372,1.31569 -2.43548,2.85267 -3.11418,4.46403 -7.93604,16.00428 18.04822,13.39492 15.13231,0.95357 C 150.3834,187.02996 147.01175,184.28912 146,182 m 14.05528,14.2944 c -9.27492,3.57514 -29.06751,19.41553 -19.98243,30.46445 3.30823,4.02333 12.62841,0.12061 19.83041,0.49637 6.96008,0.36313 11.78724,5.10055 16.05188,3.42905 15.94153,-6.24819 8.08404,-21.50849 -1.14064,-27.84693 -4.78848,-3.29025 -8.43717,-8.97986 -14.75922,-6.54294"
         id="path11-7"
         sodipodi:nodetypes="csccsccssccscsccssssc" /></g></g><text
     xml:space="preserve"
     style="font-size:82.7504px;text-align:start;text-anchor:start;display:none;fill:#000000;fill-opacity:1;stroke:#000000;stroke-width:1.41879;stroke-opacity:1"
     id="text15"
     inkscape:transform-center-x="4.9796807"
     inkscape:transform-center-y="-7.953519"
     x="205.2944"
     y="0"
     transform="matrix(1.050037,0,0,1.0127282,-29.473517,-106.79872)"><textPath
       xlink:href="#path15"
       id="textPath16"
       style="font-style:normal;font-variant:normal;font-weight:normal;font-stretch:normal;font-size:82.7504px;font-family:Calibri;-inkscape-font-specification:Calibri;text-align:start;text-anchor:start;fill:#000000;fill-opacity:1;stroke-width:1.41879"
       inkscape:label="textPath16">Opy'l   poils</textPath></text><text
     xml:space="preserve"
     style="font-style:normal;font-variant:normal;font-weight:normal;font-stretch:normal;font-size:37.3333px;font-family:Calibri;-inkscape-font-specification:Calibri;text-align:center;text-anchor:middle;display:none;fill:#000000;fill-opacity:0;stroke:none;stroke-width:1.1517;stroke-opacity:1"
     x="191.86507"
     y="218.3645"
     id="text16"
     transform="scale(1.0501489,0.95224592)"><path
       style="fill:#000000;fill-opacity:1;stroke:#000000;stroke-width:0.78484;stroke-opacity:0.995624"
       d="M 47.928382,158.32668 C 177.28381,67.789882 313.51598,66.128179 457.06882,159.07869"
       id="path15"
       sodipodi:nodetypes="cc"
       transform="scale(0.95224592,1.0501489)" /></text></svg>
